<?xml version="1.0" encoding="UTF-8"?>
<svg version="1.1" xmlns="http://www.w3.org/2000/svg" width="379" height="147">
<path d="M0 0 C4.59465859 4.70952505 6.29731937 8.6937552 6.375 15.25 C6.23097552 22.40321571 5.05705832 26.95460984 -0.046875 32.0390625 C-1.98489119 33.76403435 -3.95142436 35.40887329 -6 37 C-5.32453125 37.30292969 -4.6490625 37.60585938 -3.953125 37.91796875 C3.16219568 41.25970173 7.46381381 44.35928869 10.4609375 51.91796875 C12.28667263 58.96953993 11.6375279 66.65244136 8 73 C5.625 75.75 5.625 75.75 3 78 C2.319375 78.680625 1.63875 79.36125 0.9375 80.0625 C-8.83967502 86.51127501 -20.45413737 87.17746357 -31.8125 87.125 C-33.0509668 87.13080078 -33.0509668 87.13080078 -34.31445312 87.13671875 C-40.64803427 87.12689163 -46.63399712 86.57872753 -53 86 C-53 56.3 -53 26.6 -53 -4 C-35.34404423 -7.92354573 -15.9888064 -10.19066781 0 0 Z M-35 8 C-35.41709358 10.61690757 -35.41709358 10.61690757 -35.29296875 13.6640625 C-35.28330078 14.78554688 -35.27363281 15.90703125 -35.26367188 17.0625 C-35.23853516 18.238125 -35.21339844 19.41375 -35.1875 20.625 C-35.17396484 21.80835938 -35.16042969 22.99171875 -35.14648438 24.2109375 C-35.11103916 27.14107539 -35.06162769 30.07031459 -35 33 C-32.79229195 33.08165496 -30.58369575 33.13948488 -28.375 33.1875 C-26.53035156 33.23970703 -26.53035156 33.23970703 -24.6484375 33.29296875 C-19.39321962 32.87097588 -16.19336384 31.28757677 -12.625 27.4375 C-10.44813294 22.83258891 -10.31292955 19.01058695 -11 14 C-12.73608715 9.70546862 -14.90356418 8.03393466 -19 6 C-22.24837749 5.56525458 -22.24837749 5.56525458 -25.625 5.6875 C-26.75164062 5.69136719 -27.87828125 5.69523438 -29.0390625 5.69921875 C-32.18512722 5.78558379 -32.18512722 5.78558379 -35 8 Z M-35 44 C-35 53.9 -35 63.8 -35 74 C-26.8128072 75.81937618 -21.54954301 76.90301725 -14.140625 73.02734375 C-9.90766312 69.93644337 -7.90840432 66.03116237 -7 61 C-6.82347061 56.17486333 -7.27407018 52.31225774 -9.625 48.0625 C-15.53455829 42.93051517 -20.64148319 42.6799715 -28.23046875 42.796875 C-31.236334 42.9380126 -31.236334 42.9380126 -35 44 Z " fill="#DCDCDC" transform="translate(228,10)"/>
<path d="M0 0 C18.15 0 36.3 0 55 0 C55 4.29 55 8.58 55 13 C42.79 13 30.58 13 18 13 C18 21.25 18 29.5 18 38 C28.89 38 39.78 38 51 38 C51 42.29 51 46.58 51 51 C40.11 51 29.22 51 18 51 C18 59.58 18 68.16 18 77 C31.2 77 44.4 77 58 77 C58 81.29 58 85.58 58 90 C38.53 90 19.06 90 -1 90 C-0.67 60.3 -0.34 30.6 0 0 Z " fill="#DCDCDC" transform="translate(2,5)"/>
<path d="M0 0 C4.13222293 4.13222293 5.89050475 8.00870537 6.21118164 13.84057617 C6.20415729 15.32478787 6.18659871 16.808976 6.16015625 18.29296875 C6.15495468 19.08020828 6.14975311 19.86744781 6.14439392 20.67854309 C6.12664794 23.18172049 6.0954693 25.6844805 6.0625 28.1875 C6.03488232 30.70118925 6.01019105 33.21482144 5.99131775 35.72859192 C5.97905811 37.29007681 5.96145193 38.85153062 5.93800354 40.41288757 C5.81609203 44.33398913 5.81609203 44.33398913 7 48 C10.02934491 48.65772428 10.02934491 48.65772428 13 49 C12.9131252 50.95917659 12.80495488 52.91741871 12.6875 54.875 C12.60048828 56.51082031 12.60048828 56.51082031 12.51171875 58.1796875 C12.34285156 59.11039063 12.17398438 60.04109375 12 61 C7.54806278 63.96795815 3.22190854 63.63458039 -2 63 C-5.45658479 60.95426614 -6.7785359 59.33219615 -9 56 C-9.44730469 56.40992188 -9.89460938 56.81984375 -10.35546875 57.2421875 C-16.32173795 62.55967263 -20.49467477 64.44978194 -28.5703125 64.24609375 C-33.64098119 63.73250512 -36.29212899 61.74004697 -39.75 58.125 C-44.59541284 51.39525995 -44.77420904 45.10469467 -44 37 C-42.48940202 31.32847346 -39.52176351 28.08890921 -34.68359375 24.91015625 C-29.04183139 21.86020119 -21.52238528 22.07785347 -15.43359375 23.671875 C-13.59118892 24.37060456 -11.7890898 25.17426624 -10 26 C-10.255602 24.06043186 -10.53004646 22.12334011 -10.8125 20.1875 C-10.96332031 19.10855469 -11.11414063 18.02960937 -11.26953125 16.91796875 C-12.03466979 13.86150623 -12.36173286 12.6815329 -15 11 C-22.14021964 10.0029423 -29.10332167 11.16088578 -36 13 C-37.32 8.71 -38.64 4.42 -40 0 C-28.37338952 -4.69143932 -11.00733848 -7.79370173 0 0 Z M-25 36 C-27.4915904 39.7373856 -27.45793285 41.57331583 -27 46 C-25.610911 49.04913936 -25.610911 49.04913936 -23 51 C-19.54295504 51.83345815 -19.54295504 51.83345815 -16 51 C-12.37584352 48.40006166 -11.20013176 46.7605007 -10.0625 42.4375 C-9.9489493 38.32749358 -9.9489493 38.32749358 -12 35 C-17.27720015 32.29374351 -20.17475029 32.65944251 -25 36 Z " fill="#DCDCDC" transform="translate(313,33)"/>
<path d="M0 0 C6.27 0 12.54 0 19 0 C18.78293816 9.19790813 18.55846965 18.39555634 18.32132149 27.59296894 C18.21146689 31.86469958 18.1047316 36.13645863 18.00537109 40.40844727 C17.90918288 44.53892927 17.8044796 48.66911908 17.6941185 52.79924583 C17.65367501 54.36704317 17.61618819 55.93491995 17.58185196 57.50286293 C17.02210155 82.78736974 17.02210155 82.78736974 10 91 C4.18989748 95.39300434 -1.95261695 95.46406963 -9 95 C-11.44441201 94.50246481 -13.6368624 93.8219609 -16 93 C-14.07289294 82.44191344 -14.07289294 82.44191344 -12 78 C-10.741875 78.226875 -9.48375 78.45375 -8.1875 78.6875 C-4.95120335 79.15264144 -4.95120335 79.15264144 -2.0625 77.8125 C0.33813249 73.71730341 0.12167323 69.5970879 0.11352539 64.93652344 C0.11367142 64.23368225 0.11381744 63.53084106 0.1139679 62.80670166 C0.11327299 60.49089437 0.10550038 58.17516819 0.09765625 55.859375 C0.09579057 54.25083459 0.09436737 52.64229362 0.09336853 51.03375244 C0.08955516 46.80544458 0.07973495 42.57717121 0.06866455 38.34887695 C0.05842506 34.03206855 0.05386547 29.71525456 0.04882812 25.3984375 C0.03811162 16.9322741 0.02052437 8.46614532 0 0 Z " fill="#D9D9D9" transform="translate(358,30)"/>
<path d="M0 0 C2.5 0.125 2.5 0.125 3.5 1.125 C4.2611339 8.92350311 3.61018647 14.44594699 -0.5 21.125 C-1.16 21.125 -1.82 21.125 -2.5 21.125 C-2.7475 21.74375 -2.995 22.3625 -3.25 23 C-4.70628639 25.47568687 -5.87812506 26.07625002 -8.5 27.125 C-8.5 27.785 -8.5 28.445 -8.5 29.125 C-10.21977843 29.93685937 -11.95167802 30.72303441 -13.6875 31.5 C-14.65042969 31.94085938 -15.61335937 32.38171875 -16.60546875 32.8359375 C-28.78321009 37.32668814 -42.60243085 36.60131385 -55.375 36.625 C-56.43614014 36.62900818 -57.49728027 36.63301636 -58.59057617 36.637146 C-84.53755172 36.66061918 -110.15579485 33.88254554 -135.92442322 31.19265747 C-160.07803965 28.6928054 -184.21386528 27.62001958 -208.5 28.125 C-209.59513916 28.13805176 -209.59513916 28.13805176 -210.71240234 28.15136719 C-218.46608167 28.26736239 -225.78485367 29.70346105 -233.3125 31.4375 C-234.18511475 31.63819092 -235.05772949 31.83888184 -235.95678711 32.0456543 C-241.13347683 33.3184976 -245.80618017 34.99864616 -250.59643555 37.34448242 C-252.5 38.125 -252.5 38.125 -255.5 38.125 C-255.5 37.135 -255.5 36.145 -255.5 35.125 C-210.67830915 12.19896273 -154.58872324 22.84035299 -106.50195312 27.76660156 C-56.66822548 34.70451652 -56.66822548 34.70451652 -10.89453125 20.51953125 C-5.90131166 15.52631166 -4.88030798 10.14505664 -3.89453125 3.3828125 C-3.34422008 0.233507 -3.23191955 0.16159598 0 0 Z " fill="#D5942C" transform="translate(309.5,106.875)"/>
<path d="M0 0 C13.86 0 27.72 0 42 0 C42 3.96 42 7.92 42 12 C41 13 41 13 37.03100586 13.11352539 C35.25894393 13.1133662 33.4868774 13.10766785 31.71484375 13.09765625 C30.78402481 13.0962413 29.85320587 13.09482635 28.8941803 13.09336853 C25.90858809 13.08775172 22.92306971 13.0751964 19.9375 13.0625 C17.91862087 13.05748716 15.89974057 13.05292388 13.88085938 13.04882812 C8.92054428 13.03777683 3.96028468 13.02050095 -1 13 C-0.67 8.71 -0.34 4.42 0 0 Z " fill="#D9D9D9" transform="translate(94,57)"/>
<path d="M0 0 C0.91521423 -0.00095673 1.83042847 -0.00191345 2.77337646 -0.00289917 C4.69624908 -0.0035764 6.61912403 -0.00175418 8.54199219 0.00244141 C11.48898404 0.00782091 14.43582519 0.00246826 17.3828125 -0.00390625 C19.25520867 -0.00324587 21.12760475 -0.00196554 23 0 C23.88125549 -0.00202423 24.76251099 -0.00404846 25.67047119 -0.00613403 C26.89754791 -0.00140579 26.89754791 -0.00140579 28.14941406 0.00341797 C29.22693939 0.00461136 29.22693939 0.00461136 30.32623291 0.00582886 C32.234375 0.1328125 32.234375 0.1328125 35.234375 1.1328125 C36.78704153 1.2792839 38.34433162 1.37975324 39.90234375 1.44921875 C41.24135742 1.51206055 41.24135742 1.51206055 42.60742188 1.57617188 C44.00057617 1.63514648 44.00057617 1.63514648 45.421875 1.6953125 C46.36224609 1.73849609 47.30261719 1.78167969 48.27148438 1.82617188 C50.59230354 1.93219915 52.91322825 2.03426279 55.234375 2.1328125 C54.904375 2.7928125 54.574375 3.4528125 54.234375 4.1328125 C53.57641937 4.14311996 52.91846375 4.15342743 52.24057007 4.16404724 C45.32859296 4.27309515 38.41672083 4.38759949 31.50488281 4.50512695 C28.93296528 4.54816418 26.36102487 4.58985786 23.7890625 4.63012695 C20.07024266 4.68859442 16.35153472 4.75205916 12.6328125 4.81640625 C11.50201263 4.83311874 10.37121277 4.84983124 9.20614624 4.86705017 C-2.57726306 5.08069087 -14.11533255 5.5642898 -25.578125 8.4453125 C-26.87266602 8.74598633 -26.87266602 8.74598633 -28.19335938 9.05273438 C-33.38355723 10.3160606 -38.06262725 12.00196414 -42.86206055 14.35229492 C-44.765625 15.1328125 -44.765625 15.1328125 -47.765625 15.1328125 C-47.765625 14.1428125 -47.765625 13.1528125 -47.765625 12.1328125 C-32.46496932 4.30661506 -17.33787911 -0.04019416 0 0 Z " fill="#F09106" transform="translate(101.765625,129.8671875)"/>
<path d="M0 0 C3.0625 1.5 3.0625 1.5 5 4 C5.64279782 6.80076193 5.63851332 9.1985947 5 12 C3.12984906 14.43119623 1.71861655 15.64069173 -1 17 C-7.99869622 17.68839635 -7.99869622 17.68839635 -12 14.9375 C-14.52975133 11.22192774 -14.7878128 9.4117517 -14 5 C-10.34605126 -0.53985777 -6.18466738 -1.17430393 0 0 Z " fill="#DEDEDE" transform="translate(372,1)"/>
<path d="M0 0 C6.27 0 12.54 0 19 0 C18.34 23.76 17.68 47.52 17 72 C16.67 72 16.34 72 16 72 C15.97673256 64.20203008 15.95901196 56.40406844 15.94818783 48.60607243 C15.94299032 44.98435799 15.93595019 41.36266747 15.92456055 37.7409668 C15.91361956 34.23964137 15.90769963 30.73833882 15.90512276 27.2369976 C15.90240173 25.26468526 15.89460783 23.292382 15.88670349 21.32008362 C15.88629946 14.79086356 16.11495361 8.47094472 17 2 C12.05 2 7.1 2 2 2 C2.05124023 4.07861328 2.10248047 6.15722656 2.15527344 8.29882812 C2.32203583 15.18755898 2.46578898 22.076634 2.59840012 28.9661026 C2.67945675 33.14082784 2.76811471 37.31509543 2.87451172 41.48925781 C2.97701886 45.52202651 3.05907853 49.55475281 3.12732697 53.58824158 C3.15681208 55.12246737 3.19350549 56.6565731 3.2377243 58.19044495 C3.65576 72.99236124 3.65576 72.99236124 -1 80 C-1.99 79.67 -2.98 79.34 -4 79 C-3.525625 78.5875 -3.05125 78.175 -2.5625 77.75 C0.70180226 74.09398147 0.12173132 69.63031755 0.11352539 64.93652344 C0.11367142 64.23368225 0.11381744 63.53084106 0.1139679 62.80670166 C0.11327299 60.49089437 0.10550038 58.17516819 0.09765625 55.859375 C0.09579057 54.25083459 0.09436737 52.64229362 0.09336853 51.03375244 C0.08955516 46.80544458 0.07973495 42.57717121 0.06866455 38.34887695 C0.05842506 34.03206855 0.05386547 29.71525456 0.04882812 25.3984375 C0.03811162 16.9322741 0.02052437 8.46614532 0 0 Z " fill="#EDEDED" transform="translate(358,30)"/>
<path d="M0 0 C2.5 0.125 2.5 0.125 3.5 1.125 C4.2611339 8.92350311 3.61018647 14.44594699 -0.5 21.125 C-1.16 21.125 -1.82 21.125 -2.5 21.125 C-2.809375 21.764375 -3.11875 22.40375 -3.4375 23.0625 C-4.5 25.125 -4.5 25.125 -5.5 26.125 C-7.83297433 26.16592937 -10.16705225 26.16741723 -12.5 26.125 C-12.83 27.115 -13.16 28.105 -13.5 29.125 C-14.16 29.125 -14.82 29.125 -15.5 29.125 C-15.5 28.135 -15.5 27.145 -15.5 26.125 C-14.84 26.125 -14.18 26.125 -13.5 26.125 C-13.4071875 25.0421875 -13.4071875 25.0421875 -13.3125 23.9375 C-12.5 21.125 -12.5 21.125 -10.125 18.8125 C-5.21919983 13.78989507 -4.3358282 7.95093029 -3.5 1.125 C-2.5 0.125 -2.5 0.125 0 0 Z " fill="#ED981E" transform="translate(309.5,106.875)"/>
<path d="M0 0 C17.88881229 -0.35331899 35.5979244 -0.05247083 53.4375 1.375 C54.63368454 1.46982162 54.63368454 1.46982162 55.85403442 1.56655884 C67.2619481 2.48482242 78.63170194 3.68362628 90 5 C89.67 5.66 89.34 6.32 89 7 C87.72253906 6.83628906 86.44507813 6.67257813 85.12890625 6.50390625 C80.05031744 5.9396186 75.04203265 5.88601907 69.9375 5.9375 C68.6390918 5.94426758 68.6390918 5.94426758 67.31445312 5.95117188 C65.20960461 5.96280087 63.10479242 5.98072927 61 6 C62.60681641 6.07347656 62.60681641 6.07347656 64.24609375 6.1484375 C65.64325639 6.22345294 67.0403905 6.2990013 68.4375 6.375 C69.14455078 6.4059375 69.85160156 6.436875 70.58007812 6.46875 C72.39239188 6.57280629 74.19817988 6.77919892 76 7 C76.495 7.99 76.495 7.99 77 9 C59.6631341 8.06153717 42.33190105 7.02522955 25 6 C25 5.67 25 5.34 25 5 C33.91 4.67 42.82 4.34 52 4 C45.8824163 3.71126993 45.8824163 3.71126993 39.7644043 3.43188477 C39.00039307 3.39377686 38.23638184 3.35566895 37.44921875 3.31640625 C36.27879028 3.26141968 36.27879028 3.26141968 35.0847168 3.20532227 C33 3 33 3 30 2 C27.7174301 1.84854901 25.43112294 1.75113021 23.14453125 1.68359375 C22.48289474 1.66281265 21.82125824 1.64203156 21.13957214 1.62062073 C19.03065148 1.55535273 16.92160865 1.49634656 14.8125 1.4375 C13.38084685 1.39429311 11.94920596 1.35067812 10.51757812 1.30664062 C7.01184846 1.19969494 3.50598214 1.09836359 0 1 C0 0.67 0 0.34 0 0 Z " fill="#EAB464" transform="translate(104,129)"/>
<path d="M0 0 C3.14581302 -0.02948491 6.29158963 -0.04695916 9.4375 -0.0625 C10.31599609 -0.07087891 11.19449219 -0.07925781 12.09960938 -0.08789062 C17.11654072 -0.10640329 21.98721065 0.12675229 26.96557617 0.74829102 C29.7831292 1.09689262 32.60608979 1.29801405 35.4375 1.5 C36.53707031 1.58507812 37.63664062 1.67015625 38.76953125 1.7578125 C40.82844368 1.91216869 42.88834995 2.05412463 44.94921875 2.1796875 C45.83222656 2.24414062 46.71523437 2.30859375 47.625 2.375 C48.40101563 2.42398438 49.17703125 2.47296875 49.9765625 2.5234375 C52.45263523 3.10660521 53.29355109 4.17343844 55 6 C51.0625162 6.02946879 47.12506144 6.04695407 43.1875 6.0625 C42.08728516 6.07087891 40.98707031 6.07925781 39.85351562 6.08789062 C20.71651294 6.14434196 20.71651294 6.14434196 16 3 C12.74657876 2.68399441 9.53751769 2.53673383 6.2734375 2.43359375 C4.51147008 2.35444287 2.75409918 2.18420135 1 2 C0.67 1.34 0.34 0.68 0 0 Z " fill="#E9A538" transform="translate(164,134)"/>
<path d="M0 0 C0 0.33 0 0.66 0 1 C-3.3 1.66 -6.6 2.32 -10 3 C-6.04 3.33 -2.08 3.66 2 4 C2 4.33 2 4.66 2 5 C1.23300781 5.01417969 0.46601562 5.02835938 -0.32421875 5.04296875 C-8.06023364 5.37541074 -15.28653309 6.54015512 -22.8125 8.3125 C-23.68285889 8.51319092 -24.55321777 8.71388184 -25.44995117 8.9206543 C-30.62990994 10.19091307 -35.30403812 11.87259718 -40.09643555 14.21948242 C-42 15 -42 15 -45 15 C-45 14.01 -45 13.02 -45 12 C-30.79787451 4.73569443 -16.205653 -0.33072761 0 0 Z " fill="#EEB159" transform="translate(99,130)"/>
<path d="M0 0 C0.495 0.99 0.495 0.99 1 2 C0.67 2.66 0.34 3.32 0 4 C-0.66 4 -1.32 4 -2 4 C-2 4.99 -2 5.98 -2 7 C-1.62875 6.505 -1.2575 6.01 -0.875 5.5 C1.74694393 3.40244486 3.73842472 3.78256165 7 4 C6.34 4.33 5.68 4.66 5 5 C5 5.66 5 6.32 5 7 C-2.00942144 10.21413403 -8.22092241 12.87652258 -16 13 C-16.99 12.34 -17.98 11.68 -19 11 C-18.67 10.34 -18.34 9.68 -18 9 C-22.62 9 -27.24 9 -32 9 C-32 8.67 -32 8.34 -32 8 C-30.91203125 7.90203125 -29.8240625 7.8040625 -28.703125 7.703125 C-18.71624628 6.71879198 -8.55386757 5.70257838 0 0 Z " fill="#ECA842" transform="translate(296,129)"/>
<path d="M0 0 C0 0.66 0 1.32 0 2 C-2.89558655 2.31493708 -5.79141892 2.62716664 -8.6875 2.9375 C-9.55729492 3.0317627 -10.42708984 3.12602539 -11.32324219 3.22314453 C-16.13291018 3.73433845 -20.91831212 4.12706608 -25.75 4.375 C-31.99293627 4.80720328 -37.69919668 6.33705667 -43.6875 8.0625 C-46.45388635 8.84543953 -49.17379347 9.48614427 -52 10 C-52 9.34 -52 8.68 -52 8 C-16.70433539 -5.20976797 -16.70433539 -5.20976797 0 0 Z " fill="#E7AF5E" transform="translate(114,123)"/>
<path d="M0 0 C13.86 0 27.72 0 42 0 C42 3.96 42 7.92 42 12 C41 13 41 13 37.03100586 13.11352539 C35.25894393 13.1133662 33.4868774 13.10766785 31.71484375 13.09765625 C30.78402481 13.0962413 29.85320587 13.09482635 28.8941803 13.09336853 C25.90858809 13.08775172 22.92306971 13.0751964 19.9375 13.0625 C17.91862087 13.05748716 15.89974057 13.05292388 13.88085938 13.04882812 C8.92054428 13.03777683 3.96028468 13.02050095 -1 13 C-0.67 8.71 -0.34 4.42 0 0 Z M1 1 C1 3.97 1 6.94 1 10 C3.0468734 12.0468734 7.3060472 11.18813103 10.12109375 11.203125 C10.93618912 11.20882507 11.75128448 11.21452515 12.59107971 11.22039795 C14.31860042 11.22986127 16.04613929 11.2363872 17.77368164 11.24023438 C20.42300726 11.24994687 23.07155958 11.28095964 25.72070312 11.3125 C27.39582871 11.31902903 29.07095986 11.32427989 30.74609375 11.328125 C31.54196396 11.3404718 32.33783417 11.3528186 33.15782166 11.36553955 C35.62591708 11.39060407 35.62591708 11.39060407 39 11 C41.64715023 7.63019987 41.64715023 7.63019987 41 1 C27.8 1 14.6 1 1 1 Z " fill="#F3F3F3" transform="translate(94,57)"/>
<path d="M0 0 C1.32 0 2.64 0 4 0 C5.59306738 4.48955354 4.0410289 7.33748921 2.22265625 11.53515625 C-1.15213107 18.33864123 -6.13088073 22.09284465 -13 25 C-13.99 25 -14.98 25 -16 25 C-16 25.66 -16 26.32 -16 27 C-17.32 26.34 -18.64 25.68 -20 25 C-19.34773438 24.6596875 -18.69546875 24.319375 -18.0234375 23.96875 C-9.72685967 19.36769799 -4.94075395 14.75312391 -2.1875 5.5625 C-1.97480469 4.71816406 -1.76210938 3.87382813 -1.54296875 3.00390625 C-1 1 -1 1 0 0 Z " fill="#EBAB51" transform="translate(317,116)"/>
<path d="M0 0 C0.86367187 -0.00257813 1.72734375 -0.00515625 2.6171875 -0.0078125 C5.125 0.125 5.125 0.125 6.92919922 0.61352539 C9.56748313 1.22806895 12.05851179 1.34060948 14.765625 1.44140625 C15.83554688 1.48330078 16.90546875 1.52519531 18.0078125 1.56835938 C19.11898437 1.60767578 20.23015625 1.64699219 21.375 1.6875 C23.06496094 1.75227539 23.06496094 1.75227539 24.7890625 1.81835938 C27.56758954 1.92432015 30.34620391 2.02639142 33.125 2.125 C32.795 2.785 32.465 3.445 32.125 4.125 C26.89228431 4.19903712 21.65987199 4.25354783 16.42675781 4.28979492 C14.64577933 4.30490173 12.86483816 4.32538835 11.08398438 4.35131836 C8.52725022 4.38761943 5.9710069 4.40470688 3.4140625 4.41796875 C2.61505524 4.43345261 1.81604797 4.44893646 0.99282837 4.46488953 C-1.25146484 4.46557617 -1.25146484 4.46557617 -4.875 4.125 C-5.535 3.135 -6.195 2.145 -6.875 1.125 C-4.41490037 -0.10504981 -2.74327194 -0.00814027 0 0 Z " fill="#EE9207" transform="translate(226.875,137.875)"/>
<path d="M0 0 C0.99 0 1.98 0 3 0 C2.91253716 1.43861294 2.80434652 2.87597508 2.6875 4.3125 C2.62949219 5.11300781 2.57148438 5.91351563 2.51171875 6.73828125 C1.90292799 9.42904349 1.22512381 10.39296613 -1 12 C-4.6875 12.1875 -4.6875 12.1875 -8 12 C-8.33 12.99 -8.66 13.98 -9 15 C-9.66 15 -10.32 15 -11 15 C-11 14.01 -11 13.02 -11 12 C-10.34 12 -9.68 12 -9 12 C-8.9175 11.2575 -8.835 10.515 -8.75 9.75 C-7.84562401 6.43395471 -6.6285474 5.16468609 -4 3 C-3.01 2.67 -2.02 2.34 -1 2 C-0.67 1.34 -0.34 0.68 0 0 Z " fill="#E9A233" transform="translate(305,121)"/>
<path d="M0 0 C0 0.33 0 0.66 0 1 C-3.3 1.66 -6.6 2.32 -10 3 C-6.04 3.33 -2.08 3.66 2 4 C2 4.33 2 4.66 2 5 C1.0821875 5.06058594 0.164375 5.12117187 -0.78125 5.18359375 C-7.218508 5.62311242 -13.60935705 6.10530999 -20 7 C-19.34 6.67 -18.68 6.34 -18 6 C-18 5.34 -18 4.68 -18 4 C-22.455 4.495 -22.455 4.495 -27 5 C-23.37379051 2.58252701 -19.95878751 2.08006184 -15.75 1.375 C-15.01136719 1.2409375 -14.27273437 1.106875 -13.51171875 0.96875 C-8.93956539 0.17850127 -4.63832865 -0.13497782 0 0 Z " fill="#E9B669" transform="translate(99,130)"/>
<path d="M0 0 C7.57023262 -0.12954409 15.01970944 0.38221749 22.5625 1 C23.76197266 1.09539062 24.96144531 1.19078125 26.19726562 1.2890625 C29.13177831 1.52288821 32.06599171 1.75994187 35 2 C35 2.33 35 2.66 35 3 C31.37 3.33 27.74 3.66 24 4 C24 4.99 24 5.98 24 7 C18.06 6.67 12.12 6.34 6 6 C6 5.67 6 5.34 6 5 C10.62 4.67 15.24 4.34 20 4 C17.8216544 2.9108272 16.2796036 2.71967644 13.8671875 2.46484375 C13.06152344 2.37783203 12.25585938 2.29082031 11.42578125 2.20117188 C10.58402344 2.11416016 9.74226562 2.02714844 8.875 1.9375 C7.60076172 1.80118164 7.60076172 1.80118164 6.30078125 1.66210938 C4.2008855 1.4379632 2.10048707 1.21853552 0 1 C0 0.67 0 0.34 0 0 Z " fill="#EABD7A" transform="translate(198,135)"/>
<path d="M0 0 C3.16658663 -0.05880804 6.33302993 -0.09386406 9.5 -0.125 C10.386875 -0.14175781 11.27375 -0.15851563 12.1875 -0.17578125 C17.82323788 -0.2172205 22.59300232 0.39558714 28 2 C28 2.66 28 3.32 28 4 C26.18757948 4.02687279 24.37504767 4.04633715 22.5625 4.0625 C21.55316406 4.07410156 20.54382813 4.08570313 19.50390625 4.09765625 C17 4 17 4 16 3 C12.78980023 2.7637353 9.58726128 2.60339698 6.37109375 2.48242188 C4.57586061 2.39075776 2.78614053 2.20240144 1 2 C0.67 1.34 0.34 0.68 0 0 Z " fill="#F09104" transform="translate(164,134)"/>
<path d="M0 0 C0 0.66 0 1.32 0 2 C5.94 2.33 11.88 2.66 18 3 C18 3.33 18 3.66 18 4 C6.45 4 -5.1 4 -17 4 C-14.63699651 1.63699651 -13.4201502 1.48566556 -10.1875 0.875 C-8.90939453 0.62363281 -8.90939453 0.62363281 -7.60546875 0.3671875 C-5.03156189 0.004448 -2.59538412 -0.06523407 0 0 Z " fill="#E79518" transform="translate(104,130)"/>
<path d="M0 0 C1.65 0 3.3 0 5 0 C4.67 0.99 4.34 1.98 4 3 C7.96 3 11.92 3 16 3 C16 3.33 16 3.66 16 4 C-0.5 4 -17 4 -34 4 C-34 3.67 -34 3.34 -34 3 C-23.11 2.67 -12.22 2.34 -1 2 C-0.67 1.34 -0.34 0.68 0 0 Z " fill="#E5AF60" transform="translate(260,139)"/>
<path d="M0 0 C0.33 0 0.66 0 1 0 C1.4731614 7.88602342 1.17981006 13.20780865 -3 20 C-3.66 20 -4.32 20 -5 20 C-4.67 17.69 -4.34 15.38 -4 13 C-4.99 13 -5.98 13 -7 13 C-7.33 13.99 -7.66 14.98 -8 16 C-8.66 15.67 -9.32 15.34 -10 15 C-8.32482761 11.46352496 -7.50719183 10.2088437 -3.8125 8.6875 C-2.884375 8.460625 -1.95625 8.23375 -1 8 C-0.67 5.36 -0.34 2.72 0 0 Z " fill="#E9A745" transform="translate(312,108)"/>
<path d="M0 0 C0.33 0.66 0.66 1.32 1 2 C1.99 2 2.98 2 4 2 C2.52663164 5.82909291 0.56408372 7.21383678 -2.9375 9.25 C-3.81277344 9.77078125 -4.68804687 10.2915625 -5.58984375 10.828125 C-8 12 -8 12 -11 12 C-11 12.66 -11 13.32 -11 14 C-12.32 13.34 -13.64 12.68 -15 12 C-14.00419922 11.45472656 -14.00419922 11.45472656 -12.98828125 10.8984375 C-7.56603784 7.81132081 -3.63489369 5.08885117 0 0 Z " fill="#ECB868" transform="translate(312,129)"/>
<path d="M0 0 C11.88 0.33 23.76 0.66 36 1 C36 1.33 36 1.66 36 2 C31.97982745 2.02485364 27.95968512 2.04293238 23.93945312 2.05493164 C22.5738853 2.05993786 21.20832276 2.06674482 19.84277344 2.07543945 C17.87176882 2.08766831 15.9007239 2.09272866 13.9296875 2.09765625 C12.15440674 2.10551147 12.15440674 2.10551147 10.34326172 2.11352539 C7.13846468 2.00470177 4.14523388 1.60517483 1 1 C1.33 3.97 1.66 6.94 2 10 C3.65 10.33 5.3 10.66 7 11 C6.34 11.66 5.68 12.32 5 13 C3.02 13 1.04 13 -1 13 C-0.67 8.71 -0.34 4.42 0 0 Z " fill="#EDEDED" transform="translate(94,57)"/>
<path d="M0 0 C0 0.66 0 1.32 0 2 C-0.66 2 -1.32 2 -2 2 C-2.33 2.66 -2.66 3.32 -3 4 C-3.66 3.67 -4.32 3.34 -5 3 C-5.99 3.99 -6.98 4.98 -8 6 C-5.03 6 -2.06 6 1 6 C1 6.33 1 6.66 1 7 C-0.43534841 7.2226746 -1.87345525 7.42761906 -3.3125 7.625 C-4.11300781 7.74101562 -4.91351563 7.85703125 -5.73828125 7.9765625 C-8 8 -8 8 -11 6 C-10.67 5.34 -10.34 4.68 -10 4 C-14.62 4 -19.24 4 -24 4 C-24 3.67 -24 3.34 -24 3 C-22.81921875 2.86722656 -21.6384375 2.73445312 -20.421875 2.59765625 C-18.86456738 2.4194102 -17.30727658 2.24101707 -15.75 2.0625 C-14.58404297 1.93198242 -14.58404297 1.93198242 -13.39453125 1.79882812 C-12.26337891 1.66831055 -12.26337891 1.66831055 -11.109375 1.53515625 C-10.07248535 1.41732788 -10.07248535 1.41732788 -9.01464844 1.29711914 C-6.97630848 1.03275979 -6.97630848 1.03275979 -4.93066406 0.46655273 C-3 0 -3 0 0 0 Z " fill="#EDB35E" transform="translate(288,134)"/>
<path d="M0 0 C4.29 0 8.58 0 13 0 C13 0.66 13 1.32 13 2 C13.66 2.66 14.32 3.32 15 4 C9.72 4 4.44 4 -1 4 C-0.67 2.68 -0.34 1.36 0 0 Z " fill="#ED9208" transform="translate(265,138)"/>
<path d="M0 0 C2.43922361 0.08700798 4.87478414 0.19386002 7.3125 0.3125 C8.00279297 0.33505859 8.69308594 0.35761719 9.40429688 0.38085938 C14.55674183 0.6546608 14.55674183 0.6546608 16.98046875 2.54296875 C17.31691406 3.02378906 17.65335938 3.50460938 18 4 C15.75026553 4.054138 13.50015617 4.09285491 11.25 4.125 C9.99703125 4.14820313 8.7440625 4.17140625 7.453125 4.1953125 C4.27179508 4.01537302 2.63478104 3.68998582 0 2 C0 1.34 0 0.68 0 0 Z " fill="#EF9106" transform="translate(201,136)"/>
<path d="M0 0 C1.65 0 3.3 0 5 0 C3.68 0.33 2.36 0.66 1 1 C1 10.9 1 20.8 1 31 C1.66 31.33 2.32 31.66 3 32 C2.01 32 1.02 32 0 32 C-0.66 31.01 -1.32 30.02 -2 29 C-1.67 28.67 -1.34 28.34 -1 28 C-0.924693 26.09642719 -0.91687032 24.19010638 -0.9375 22.28515625 C-0.94523438 21.12435547 -0.95296875 19.96355469 -0.9609375 18.76757812 C-0.98693799 16.30143186 -1.01297952 13.83528602 -1.0390625 11.36914062 C-1.04679688 10.20705078 -1.05453125 9.04496094 -1.0625 7.84765625 C-1.07410156 6.77523682 -1.08570313 5.70281738 -1.09765625 4.59790039 C-1 2 -1 2 0 0 Z " fill="#E7E7E7" transform="translate(192,53)"/>
<path d="M0 0 C0 0.99 0 1.98 0 3 C-1.43429001 3.67354499 -2.87257057 4.33859701 -4.3125 5 C-5.51326172 5.556875 -5.51326172 5.556875 -6.73828125 6.125 C-9 7 -9 7 -12 7 C-12 6.01 -12 5.02 -12 4 C-10.75539217 3.32332002 -9.50403104 2.65905281 -8.25 2 C-7.55390625 1.62875 -6.8578125 1.2575 -6.140625 0.875 C-4 0 -4 0 0 0 Z " fill="#EBAA4B" transform="translate(66,138)"/>
<path d="M0 0 C2 1 2 1 3 3 C2.67 3.99 2.34 4.98 2 6 C-1.3 6 -4.6 6 -8 6 C-7.67 5.01 -7.34 4.02 -7 3 C-4 2 -4 2 0 2 C0 1.34 0 0.68 0 0 Z " fill="#EF9206" transform="translate(288,134)"/>
<path d="M0 0 C-0.33 0.99 -0.66 1.98 -1 3 C-3.87109375 4.16796875 -3.87109375 4.16796875 -7.4375 5.1875 C-9.19900391 5.70376953 -9.19900391 5.70376953 -10.99609375 6.23046875 C-14 7 -14 7 -16 7 C-16 6.34 -16 5.68 -16 5 C-13.70967689 4.16280617 -11.41789043 3.3301071 -9.125 2.5 C-8.47402344 2.26152344 -7.82304688 2.02304688 -7.15234375 1.77734375 C-2.2265625 0 -2.2265625 0 0 0 Z " fill="#D6B988" transform="translate(78,126)"/>
<path d="M0 0 C0.66 0 1.32 0 2 0 C2.33 0.66 2.66 1.32 3 2 C6.02934491 2.65772428 6.02934491 2.65772428 9 3 C8.88652381 4.97986082 8.7589065 6.95891598 8.625 8.9375 C8.55539062 10.03964844 8.48578125 11.14179687 8.4140625 12.27734375 C8.27742188 13.17582031 8.14078125 14.07429688 8 15 C7.01 15.495 7.01 15.495 6 16 C5.71428571 7.42857143 5.71428571 7.42857143 8 4 C7.236875 4.20625 6.47375 4.4125 5.6875 4.625 C3 5 3 5 0 3 C0 2.01 0 1.02 0 0 Z " fill="#EEEEEE" transform="translate(317,79)"/>
<path d="M0 0 C0 1.65 0 3.3 0 5 C-1.65 5 -3.3 5 -5 5 C-5.33 5.99 -5.66 6.98 -6 8 C-6.66 8 -7.32 8 -8 8 C-8 7.01 -8 6.02 -8 5 C-7.34 5 -6.68 5 -6 5 C-5.67 3.68 -5.34 2.36 -5 1 C-1.125 0 -1.125 0 0 0 Z " fill="#F09105" transform="translate(302,128)"/>
<path d="M0 0 C0.66 0.66 1.32 1.32 2 2 C-1.63 2.33 -5.26 2.66 -9 3 C-8.67 2.01 -8.34 1.02 -8 0 C-4.67679974 -1.10773342 -3.30835256 -0.93312508 0 0 Z " fill="#E6B56A" transform="translate(87,125)"/>
<path d="M0 0 C1.32 0.66 2.64 1.32 4 2 C2.68 2 1.36 2 0 2 C-0.33 6.29 -0.66 10.58 -1 15 C-1.99 15 -2.98 15 -4 15 C-2.07289294 4.44191344 -2.07289294 4.44191344 0 0 Z " fill="#F2F2F2" transform="translate(346,108)"/>
<path d="M0 0 C0.33 0 0.66 0 1 0 C1 1.98 1 3.96 1 6 C2.32 6 3.64 6 5 6 C4.67 7.32 4.34 8.64 4 10 C2.35 10 0.7 10 -1 10 C-0.67 6.7 -0.34 3.4 0 0 Z " fill="#E9A133" transform="translate(306,108)"/>
<path d="M0 0 C0.99 0 1.98 0 3 0 C2.7834375 0.8353125 2.7834375 0.8353125 2.5625 1.6875 C1.97230872 4.11384195 1.476571 6.54906345 1 9 C0.01 9 -0.98 9 -2 9 C-1.41196203 5.97580475 -0.77321882 2.98241547 0 0 Z " fill="#EB920D" transform="translate(317,118)"/>
<path d="M0 0 C1.66628955 0.03545297 3.33409803 0.05048188 5 0 C1.88610696 1.81643761 -0.40777709 2.2719038 -4 2.25 C-5.2684375 2.25773437 -5.2684375 2.25773437 -6.5625 2.265625 C-9.13478811 1.98531155 -10.7803108 1.2948187 -13 0 C-8.34025896 -1.02286998 -4.6861361 -0.76682227 0 0 Z " fill="#EDEDED" transform="translate(358,123)"/>
<path d="M0 0 C2.3125 0.8125 2.3125 0.8125 4 2 C2.35 2.33 0.7 2.66 -1 3 C-1 3.66 -1 4.32 -1 5 C-2.32 4.34 -3.64 3.68 -5 3 C-2.75 1.375 -2.75 1.375 0 0 Z " fill="#DDC093" transform="translate(302,138)"/>
<path d="M0 0 C0 0.66 0 1.32 0 2 C-5.41538462 3.23076923 -5.41538462 3.23076923 -8.375 2.0625 C-8.91125 1.711875 -9.4475 1.36125 -10 1 C-6.59437148 0.22157062 -3.49234244 -0.09978121 0 0 Z " fill="#EB940F" transform="translate(81,134)"/>
<path d="M0 0 C0.99 0 1.98 0 3 0 C2.67 2.31 2.34 4.62 2 7 C0.4375 5.75 0.4375 5.75 -1 4 C-0.6875 1.8125 -0.6875 1.8125 0 0 Z " fill="#EF9204" transform="translate(305,121)"/>
<path d="M0 0 C3.37503669 1.1858237 5.64722731 2.27573689 8 5 C6.02 5.33 4.04 5.66 2 6 C2.33 4.68 2.66 3.36 3 2 C2.01 1.67 1.02 1.34 0 1 C0 0.67 0 0.34 0 0 Z " fill="#E6E6E6" transform="translate(225,49)"/>
<path d="M0 0 C2.64 0.33 5.28 0.66 8 1 C5.23776722 3.76223278 2.79293383 3.57856291 -1 4 C-0.67 2.68 -0.34 1.36 0 0 Z " fill="#E6E6E6" transform="translate(215,91)"/>
<path d="M0 0 C0.33 1.32 0.66 2.64 1 4 C-0.65 4.33 -2.3 4.66 -4 5 C-4 4.01 -4 3.02 -4 2 C-2.68 1.34 -1.36 0.68 0 0 Z " fill="#E8B369" transform="translate(58,140)"/>
<path d="M0 0 C0.99 0.99 1.98 1.98 3 3 C2.34 4.65 1.68 6.3 1 8 C0.34 8 -0.32 8 -1 8 C-0.67 5.36 -0.34 2.72 0 0 Z " fill="#EFB05A" transform="translate(308,120)"/>
<path d="M0 0 C3 1 3 1 3 1 Z " fill="#FFFEFE" transform="translate(112,126)"/>
</svg>
